<svg viewBox="0 0 120 120" fill="none" xmlns="http://www.w3.org/2000/svg">
  <rect width="120" height="120" rx="12" fill="#CC0000"/>
  <!-- Flame icon -->
  <path d="M60 22 C60 22 72 34 72 46 C72 50 70 53 67 55 C68 50 65 46 62 44 C63 50 60 54 58 56 C56 52 56 47 58 44 C54 48 52 53 52 58 C52 66 56 72 60 74 C64 72 68 66 68 58 C70 62 72 67 72 72 C72 80 66 86 60 88 C54 86 48 80 48 72 C48 60 55 48 60 22Z" fill="#FF6B35" opacity="0.9"/>
  <path d="M60 38 C60 38 66 46 66 54 C66 60 63 64 60 66 C57 64 54 60 54 54 C54 48 58 42 60 38Z" fill="#FFD700"/>
  <text x="60" y="102" text-anchor="middle" font-family="Arial,sans-serif" font-size="11" font-weight="700" fill="#FFFFFF" letter-spacing="1.5">NFPA 701</text>
  <text x="60" y="114" text-anchor="middle" font-family="Arial,sans-serif" font-size="7.5" fill="#FFCCCC" letter-spacing="0.5">FLAME RETARDANT</text>
</svg>
