<?xml version="1.0" encoding="UTF-8"?>
<svg width="430" height="600" version="1.1" xmlns="http://www.w3.org/2000/svg">
 <path d="m139.45 180.1c2.8058-4.4368 4.2543-10.686 4.2543-18.749 0-7.8756-1.3573-14.034-4.1631-18.202-2.7194-4.1632-6.7008-6.2495-11.957-6.2495-5.4299 0-9.6887 2.0863-12.495 6.2495-2.897 4.2591-4.35 10.326-4.35 18.202 0 7.9717 1.453 14.221 4.35 18.658 2.8062 4.3455 6.9741 6.6143 12.226 6.6143 5.3431 0 9.4198-2.1776 12.135-6.5231m181.85 46.458c-7.2426 0-13.132 5.9809-13.132 13.223 0 7.3382 5.8897 13.224 13.132 13.224 7.247 0 13.132-5.9761 13.132-13.224 0.089-7.2423-5.794-13.223-13.132-13.223m7.698 21.919c-0.3604 0.1811-0.7243 0.2733-1.0884 0.3601-0.3605 0.092-0.72431 0.092-1.1753 0.092-0.7242 0-1.3573-0.1776-1.9039-0.5422-0.45061-0.2733-0.90121-0.8161-1.3573-1.5397l-2.8061-4.8922h-0.7243v6.614h-4.5276v-18.293h0.36c0.8148-0.089 1.631-0.1811 2.4461-0.1811 0.8148 0 1.5398-0.089 2.264-0.089 2.6282 0 4.5277 0.4506 5.7985 1.3573 1.2668 0.9067 1.8995 2.3549 1.8995 4.2591 0 0.8148-0.089 1.4485-0.2699 2.0816-0.1811 0.5421-0.4557 1.0884-0.8161 1.6309-0.3642 0.4506-0.7281 0.8158-1.18 1.1749-0.2733 0.1811-0.5426 0.3642-0.8148 0.5463l4.3455 7.2426zm-13.857-111.58c-5.4343 0-9.6887 2.0864-12.499 6.2495-2.897 4.2591-4.3455 10.326-4.3455 18.202 0 7.9717 1.4485 14.221 4.3455 18.658 2.8106 4.3455 6.8829 6.6143 12.226 6.6143 5.2567 0 9.3289-2.1775 12.139-6.5231 2.8062-4.4368 4.2547-10.686 4.2547-18.749 0-7.8756-1.3577-14.034-4.1635-18.202-2.8106-4.1631-6.7961-6.2495-11.957-6.2495m-75.35-126.24c-69.826 0-114.47 21.372-138.2 37.221-24.543 16.485-68.104 60.588-76.344 132.32-6.5228 56.602 12.135 115.47 55.512 158.94 41.3 41.296 92.92 56.694 136.84 56.694 53.524 0 107.41-21.646 140.92-60.137 33.507-38.492 50.626-86.938 50.626-155.59v-169.35h-169.36zm-13.219 115.29 0.36008-0.089c2.264-0.3642 3.9858-0.5463 5.0698-0.5463 6.5231 0 9.7843 2.9015 9.7843 8.6956v21.915c0.0922-0.2699 0.17765-0.5425 0.36042-0.811 0.63271-1.453 1.7218-3.1703 3.1704-4.983l14.308-18.926c1.5394-1.9954 3.1703-3.5348 4.8009-4.4412 1.6306-0.9026 3.4437-1.4485 5.5252-1.4485 1.7219 0 3.3528 0.2733 4.8922 0.9064 1.5397 0.5421 2.8062 1.3573 3.8946 2.446l0.2699 0.2734-23.185 31.152 26.173 35.683-0.4506 0.2699c-2.8058 1.6306-5.6164 2.5373-8.5134 2.5373-4.801 0-8.6956-1.9039-11.593-5.7076l-15.396-20.015c-1.9907-2.6237-3.4389-5.161-4.3456-7.6071v32.15h-15.214v-71.452zm-55.607-0.1811h44.467l0.0888 0.3605c0.18106 1.0884 0.36042 2.4461 0.36042 3.9858 0 2.8058-0.7246 4.8009-2.1728 6.0674-1.4485 1.18-3.8037 1.8127-7.1517 1.8127h-20.197v16.48h22.188v12.14h-22.188v18.562h21.915c2.9015 0 5.1655 0.7243 6.7052 2.0864 1.6262 1.3573 2.4413 3.348 2.4413 5.8849 0 0.8162 0 1.4489-0.0888 1.9907 0 0.5463-0.0888 1.0884-0.18107 1.7218v0.3642h-46.189zm-72.272 55.512c-2.4461-5.612-3.6213-12.312-3.6213-19.924 0-7.5159 1.3573-14.125 3.9855-19.742 2.6237-5.6165 6.5183-9.962 11.411-12.859 4.8877-2.897 10.686-4.3455 17.296-4.3455 10.053 0 17.933 3.2568 23.459 9.7799 5.434 6.4271 8.2402 15.578 8.2402 27.166 0 11.684-2.8062 21.013-8.4226 27.713-5.6164 6.7052-13.674 10.053-24.092 10.053-6.7913 0-12.677-1.5397-17.387-4.6189-4.801-3.1703-8.4222-7.5159-10.868-13.224m80.061 51.354c-1.5394 1.3573-3.8034 2.0816-6.6136 2.0816h-12.768v58.774h-15.396v-58.774h-21.823l-0.0888-0.3642c-0.18107-1.2664-0.36418-2.715-0.36418-4.2544 0-2.446 0.90635-4.4367 2.537-5.8852 1.7218-1.453 3.9858-2.1773 6.7916-2.1773h49.629l0.0888 0.3642c0.18107 1.4485 0.27331 2.9879 0.27331 4.6189 0.0888 2.3548-0.72426 4.2543-2.264 5.6164m56.243 58.682c0 0.5425-0.0922 1.0884-0.18106 1.7218v0.3605h-46.189v-71.541h44.467l0.0922 0.3604c0.18106 1.0885 0.36008 2.4461 0.36008 3.9855 0 2.8062-0.72426 4.8013-2.1728 6.0674-1.4485 1.1803-3.8034 1.813-7.1514 1.813h-20.197v16.48h22.188v12.135h-22.188v18.567h21.914c2.9018 0 5.1655 0.7243 6.7052 2.086 1.6262 1.3576 2.4416 3.348 2.4416 5.8853 0 0.9063 0 1.5397-0.0922 2.0819m64.749 1.7218c-2.9879 1.0844-5.7937 1.6306-8.4223 1.6306-2.5369 0-4.6187-0.5462-6.2493-1.4485-1.6306-0.9982-3.1704-2.7194-4.6189-5.1655l-10.413-17.387-13.132 22.821h-16.754l21.008-35.68-18.562-33.69 0.45061-0.181c8.9644-3.9855 15.032-2.8971 18.111 3.0794l9.7844 18.384 9.9623-17.209c1.4482-2.4413 2.8967-4.1631 4.3456-5.0698 1.5394-0.9979 3.4436-1.4482 5.7073-1.4482 2.5325 0 5.161 0.7243 7.8756 2.1724l0.4561 0.1811-19.564 33.325 20.557 35.502zm21.555-34.959c-10.053 0-18.111-8.2401-18.111-18.293 0-10.053 8.1493-18.293 18.111-18.293 10.053 0 18.202 8.2401 18.202 18.293 0 10.053-8.1489 18.293-18.202 18.293m17.118-69.102c-5.6165 6.7052-13.674 10.053-24.092 10.053-6.7916 0-12.676-1.5398-17.387-4.6189-4.7098-3.0791-8.3311-7.5159-10.777-13.132-2.4461-5.612-3.6213-12.312-3.6213-19.924 0-7.5159 1.3573-14.126 3.981-19.742 2.7194-5.6168 6.5228-9.9624 11.415-12.859 4.8878-2.897 10.686-4.3455 17.296-4.3455 10.053 0 17.933 3.2568 23.454 9.7795 5.4343 6.4275 8.2449 15.578 8.2449 27.167-0.089 11.684-2.897 20.922-8.5134 27.622m-17.569 44.559h-0.9057v5.1655h0.7243c0.9063 0 1.6306-0.1811 2.1727-0.6378 0.4558-0.4507 0.7243-1.0847 0.7243-2.0816 0-0.9067-0.2699-1.631-0.7243-1.9907-0.36001-0.2733-0.9982-0.4557-1.9907-0.4557" fill="#050505"/>
 <path d="m282.97 563.07c0 8.6956-1.6306 15.214-4.8013 19.65-3.17 4.4412-7.8756 6.6143-14.125 6.6143-6.4319 0-11.142-2.1731-14.312-6.5231-3.17-4.3456-4.7097-10.955-4.7097-19.742 0-8.4226 1.6306-14.945 4.9834-19.564 3.3524-4.6189 8.0578-6.8829 14.307-6.8829 6.2499 0 10.869 2.1776 13.948 6.5231 3.1703 4.3456 4.71 10.959 4.71 19.924m-10.326 0c0-6.1586-0.6327-10.777-1.9903-13.766-1.3577-2.9882-3.5304-4.4364-6.4319-4.4364-2.9883 0-5.1611 1.4482-6.5184 4.4364-1.3576 2.9883-2.0819 7.5159-2.0819 13.766 0 6.0674 0.7246 10.595 2.0819 13.583 1.3573 2.9882 3.5301 4.4412 6.5184 4.4412 2.9015 0 5.0742-1.453 6.4319-4.35 1.3573-2.897 1.9903-7.5159 1.9903-13.674m-40.934 0c0 8.6956-1.6306 15.214-4.801 19.65-3.1704 4.4412-7.876 6.6143-14.125 6.6143-6.4316 0-11.142-2.1731-14.312-6.5231-3.1703-4.3456-4.7101-10.955-4.7101-19.742 0-8.4226 1.6306-14.945 4.9834-19.564 3.3524-4.6189 8.0577-6.8829 14.308-6.8829 6.2495 0 10.868 2.1776 13.948 6.5231 3.17 4.3456 4.7097 10.959 4.7097 19.924m-10.413 0c0-6.1586-0.63782-10.777-1.9951-13.766-1.3573-2.9882-3.5301-4.4364-6.4271-4.4364-2.9927 0-5.1655 1.4482-6.5228 4.4364-1.3576 2.9883-2.0819 7.5159-2.0819 13.766 0 6.0674 0.7246 10.595 2.0819 13.583 1.3573 2.9882 3.5301 4.4412 6.5228 4.4412 2.897 0 5.0698-1.453 6.4271-4.35s1.9951-7.5159 1.9951-13.674m-54.521 25.086v-38.758l-10.053 5.0698c-2.0819-2.7194-3.1704-4.8922-3.1704-6.2498 0-1.4485 0.81479-2.6282 2.4461-3.4389l10.868-5.7076c0.99825-0.54217 1.9907-0.99791 2.9882-1.3573 0.90635-0.36418 1.9039-0.54627 2.9879-0.54627 1.631 0 2.9882 0.45574 4.2591 1.2705v49.81h-10.327zm253.31-103.61c0 5.4343-0.9983 10.144-2.9883 14.217-1.9951 4.0767-4.8009 7.065-8.5134 9.2377-3.6213 2.086-7.9713 3.1703-13.042 3.1703h-16.303v-50.893c4.8012-0.63782 9.6022-0.90635 14.399-0.90635 8.7868 0 15.31 2.0819 19.746 6.3407 4.528 4.1635 6.7008 10.504 6.7008 18.835m-10.687 0.18106c0-5.7985-1.2664-10.144-3.7122-13.041-2.446-2.8106-6.1586-4.2591-11.233-4.2591-1.4485 0-2.9883 0.0888-4.6189 0.2733v35.321h4.2591c5.252 0 9.1466-1.4485 11.593-4.3456 2.4461-2.9015 3.7122-7.5203 3.7122-13.948m-46.821-10.235c0 3.6213-0.8162 6.7916-2.5373 9.3289-1.7171 2.6237-4.0723 4.4364-7.1514 5.6164l12.677 21.19c-1.9907 0.90635-4.0767 1.2668-6.1586 1.2668-1.8994 0-3.4392-0.45095-4.8009-1.2668-1.2668-0.81479-2.4417-2.1728-3.5301-3.9858l-8.6959-14.854h-4.2543v19.291h-10.595v-51.077c4.4365-0.54251 8.9641-0.72425 13.583-0.72425 7.3338 0 12.677 1.2664 16.212 3.7122 3.53 2.4461 5.2519 6.3407 5.2519 11.502m-11.051 0.99824c0-2.9882-0.7243-5.1655-2.2637-6.614-1.5397-1.4489-3.8946-2.1731-7.1517-2.1731-0.9063 0-1.7218 0-2.3548 0.0888-0.6327 0.0888-1.2706 0.0888-1.7219 0.18106v17.751h3.6213c3.1704 0 5.6165-0.81479 7.3383-2.3549 1.7174-1.631 2.5325-3.9858 2.5325-6.8828m-47.183 35.68-4.3455-12.59h-17.751l-4.2591 12.59h-10.413l17.842-50.626c1.6306-0.72426 3.7122-1.0884 6.1583-1.0884 3.8037 0 6.1586 1.631 7.2426 4.801l16.485 46.913zm-13.132-42.113-6.9741 21.823h13.766zm-32.15 15.486c0 5.4343-0.9982 10.144-2.9882 14.217-1.9952 4.0767-4.801 7.0649-8.5135 9.2377-3.6213 2.086-7.9713 3.1704-13.041 3.1704h-16.303v-50.893c4.801-0.63783 9.6019-0.90635 14.398-0.90635 8.7868 0 15.31 2.0819 19.746 6.3407 4.4368 4.1635 6.7008 10.504 6.7008 18.835m-10.777 0.18106c0-5.7985-1.2668-10.144-3.7125-13.041-2.4461-2.8106-6.1583-4.2591-11.228-4.2591-1.4533 0-2.9927 0.0888-4.6189 0.27331v35.321h4.2544c5.2519 0 9.1465-1.4485 11.593-4.3456 2.5373-2.9015 3.7125-7.5203 3.7125-13.948m-49.086 26.444h-8.8732l-21.828-33.781v33.781h-10.053v-51.258c1.3573-0.2733 2.8967-0.45607 4.7097-0.45607 1.4485 0 2.715 0.2733 3.6213 0.7246 0.90635 0.45573 1.813 1.3617 2.6282 2.719l19.833 32.332v-35.321c1.5394-0.27331 2.7146-0.36418 3.4389-0.36418 4.4412 0 6.6143 1.9951 6.6143 5.9762v45.645zm-64.391 0-4.3456-12.59h-17.751l-4.2591 12.59h-10.413l17.842-50.626c1.6306-0.72426 3.7122-1.0884 6.1583-1.0884 3.8034 0 6.1586 1.631 7.2426 4.801l16.485 46.913zm-13.132-42.113-6.9741 21.823h13.765zm-52.075-0.72563h-16.029c-0.18106-0.90635-0.27331-1.9039-0.27331-3.0791 0-1.7218 0.54627-2.9883 1.7218-3.9858 1.1749-0.99825 2.7146-1.5397 4.801-1.5397h36.046c0.18106 1.0884 0.26989 2.1728 0.26989 3.2616 0 1.6306-0.54217 2.897-1.6262 3.8946-1.0884 0.90635-2.6282 1.4485-4.6189 1.4485h-9.6931v42.837h-10.595zm-56.332 30.973c2.2636 1.813 4.4368 3.0795 6.4316 3.8037 1.9907 0.72426 4.0726 1.18 6.245 1.18 2.6285 0 4.7101-0.63782 6.2498-1.813 1.5394-1.18 2.3549-2.8967 2.3549-5.0742-0.0888-1.8083-0.54217-3.1656-1.4485-4.2544-0.90634-1.0884-2.1728-1.9042-3.6213-2.6285-1.5394-0.72426-3.1704-1.3573-4.983-1.8995-1.631-0.54217-3.2571-1.0884-4.8877-1.8127-1.631-0.72426-3.1704-1.5397-4.5276-2.6237-1.3621-1.0884-2.4464-2.4461-3.2616-4.1679-0.81616-1.7218-1.2668-3.8034-1.2668-6.2495 0-3.0795 0.81103-5.7944 2.3504-8.0581 1.631-2.264 3.8082-3.9858 6.5231-5.1655 2.8058-1.1752 5.885-1.8083 9.3286-1.8083 2.6237 0 5.2522 0.36008 7.7892 0.99791 2.5329 0.72426 4.3456 1.5397 5.612 2.4416 1.4485 0.81479 2.1772 1.9951 2.1772 3.4436 0 0.6327-0.27331 1.5394-0.81479 2.537-0.54593 1.0847-1.2705 2.0819-2.2637 2.9882-1.631-1.2705-3.4436-2.3549-5.4343-3.0791-2.0864-0.81616-4.0767-1.1803-5.981-1.1803-2.5325 0-4.5276 0.54251-5.9762 1.5397-1.4485 0.99825-2.264 2.4461-2.264 4.35 0 0.99312 0.2733 1.8995 0.72426 2.715 0.45607 0.81479 1.2709 1.6306 2.4461 2.264 1.0888 0.72426 3.2616 1.6306 6.2498 2.719 1.6306 0.6327 3.2612 1.2668 4.9786 1.9907 1.7218 0.7246 3.2616 1.6306 4.6189 2.715 1.3621 1.0884 2.5373 2.4461 3.3524 4.1679 0.90669 1.6306 1.2668 3.7125 1.2668 6.2495 0 5.2522-1.717 9.3289-5.1607 12.317-3.4392 2.9879-8.1493 4.4364-14.039 4.4364-2.7146 0-5.3431-0.2733-7.7844-0.81479-2.4461-0.54217-4.4412-1.3573-6.1586-2.264-1.453-0.99688-2.1772-2.0816-2.1772-3.3524 0-1.4485 1.18-3.7122 3.3524-6.6096" fill="#050505"/>
</svg>
